<svg width="106" height="54" viewBox="0 0 106 54" fill="none" xmlns="http://www.w3.org/2000/svg">
<path d="M11.7 14.728C14.364 14.728 16.692 15.256 18.684 16.312C20.676 17.368 22.212 18.856 23.292 20.776C24.396 22.672 24.948 24.868 24.948 27.364C24.948 29.836 24.396 32.032 23.292 33.952C22.212 35.872 20.664 37.36 18.648 38.416C16.656 39.472 14.34 40 11.7 40H2.232V14.728H11.7ZM11.304 34.672C13.632 34.672 15.444 34.036 16.74 32.764C18.036 31.492 18.684 29.692 18.684 27.364C18.684 25.036 18.036 23.224 16.74 21.928C15.444 20.632 13.632 19.984 11.304 19.984H8.388V34.672H11.304ZM46.5683 14.728V19.66H39.8723V40H33.7163V19.66H27.0203V14.728H46.5683ZM55.8138 19.66V24.772H64.0578V29.524H55.8138V35.068H65.1378V40H49.6578V14.728H65.1378V19.66H55.8138ZM87.1343 44.32L83.8943 39.964C82.9343 40.156 81.9983 40.252 81.0863 40.252C78.7103 40.252 76.5263 39.7 74.5343 38.596C72.5663 37.492 70.9943 35.956 69.8183 33.988C68.6663 31.996 68.0903 29.764 68.0903 27.292C68.0903 24.82 68.6663 22.6 69.8183 20.632C70.9943 18.664 72.5663 17.128 74.5343 16.024C76.5263 14.92 78.7103 14.368 81.0863 14.368C83.4623 14.368 85.6343 14.92 87.6023 16.024C89.5943 17.128 91.1543 18.664 92.2823 20.632C93.4343 22.6 94.0103 24.82 94.0103 27.292C94.0103 29.452 93.5663 31.432 92.6783 33.232C91.8143 35.008 90.6023 36.484 89.0423 37.66L94.5863 44.32H87.1343ZM74.3903 27.292C74.3903 29.524 74.9903 31.312 76.1903 32.656C77.4143 33.976 79.0463 34.636 81.0863 34.636C83.1023 34.636 84.7103 33.964 85.9103 32.62C87.1343 31.276 87.7463 29.5 87.7463 27.292C87.7463 25.06 87.1343 23.284 85.9103 21.964C84.7103 20.62 83.1023 19.948 81.0863 19.948C79.0463 19.948 77.4143 20.608 76.1903 21.928C74.9903 23.248 74.3903 25.036 74.3903 27.292ZM100.385 40.288C99.3054 40.288 98.4174 39.976 97.7214 39.352C97.0494 38.704 96.7134 37.912 96.7134 36.976C96.7134 36.016 97.0494 35.212 97.7214 34.564C98.4174 33.916 99.3054 33.592 100.385 33.592C101.441 33.592 102.305 33.916 102.977 34.564C103.673 35.212 104.021 36.016 104.021 36.976C104.021 37.912 103.673 38.704 102.977 39.352C102.305 39.976 101.441 40.288 100.385 40.288Z" fill="#B5B5B5"/>
</svg>
