<svg width="76" height="76" viewBox="0 0 76 76" fill="none" xmlns="http://www.w3.org/2000/svg">
<circle cx="38" cy="38" r="38" fill="#DAE0E5"/>
<circle cx="38" cy="38" r="32" fill="#F7FFF1"/>
<path d="M16.33 45.24C15.51 45.24 14.77 45 14.11 44.52L13.75 44.4C13.43 44.24 13.14 44.12 12.88 44.04C12.64 43.94 12.46 43.79 12.34 43.59C12.24 43.37 12.22 43.01 12.28 42.51C12.4 41.57 12.62 40.56 12.94 39.48C13.28 38.4 13.67 37.32 14.11 36.24C14.57 35.16 15.03 34.17 15.49 33.27C15.95 32.35 16.37 31.61 16.75 31.05C17.15 30.47 17.6 30.07 18.1 29.85C18.6 29.61 19.16 29.49 19.78 29.49C20.48 29.49 21.01 29.53 21.37 29.61C21.75 29.67 21.89 29.75 21.79 29.85C21.37 30.33 20.92 30.93 20.44 31.65C19.98 32.37 19.54 33.11 19.12 33.87C18.72 34.63 18.37 35.31 18.07 35.91C17.79 36.51 17.48 37.22 17.14 38.04C16.8 38.84 16.48 39.65 16.18 40.47C15.88 41.29 15.65 42.04 15.49 42.72C15.33 43.4 15.28 43.91 15.34 44.25C15.4 44.27 15.46 44.28 15.52 44.28C15.58 44.28 15.64 44.28 15.7 44.28C16.3 44.28 16.9 44.08 17.5 43.68C18.1 43.28 18.67 42.77 19.21 42.15C19.77 41.51 20.24 40.87 20.62 40.23C20.92 39.75 21.24 39.13 21.58 38.37C21.94 37.61 22.28 36.79 22.6 35.91C22.92 35.03 23.18 34.15 23.38 33.27C23.58 32.39 23.68 31.58 23.68 30.84C23.68 30 23.51 29.31 23.17 28.77C22.85 28.23 22.28 27.96 21.46 27.96C20.68 27.96 19.69 28.24 18.49 28.8C17.61 29.2 16.71 29.71 15.79 30.33C14.89 30.93 14.06 31.57 13.3 32.25C12.56 32.93 11.98 33.61 11.56 34.29C11.44 34.27 11.24 34.26 10.96 34.26C10.7 34.24 10.57 34.07 10.57 33.75C10.57 33.57 10.65 33.32 10.81 33C10.97 32.66 11.27 32.21 11.71 31.65C11.79 31.55 12.04 31.3 12.46 30.9C12.9 30.5 13.51 30.04 14.29 29.52C15.09 29 16.05 28.5 17.17 28.02C17.97 27.68 18.83 27.42 19.75 27.24C20.67 27.06 21.59 26.97 22.51 26.97C24.23 26.99 25.44 27.4 26.14 28.2C26.84 28.98 27.19 29.95 27.19 31.11C27.19 32.21 27.01 33.33 26.65 34.47C26.31 35.59 25.87 36.65 25.33 37.65C24.81 38.65 24.27 39.52 23.71 40.26C23.03 41.18 22.27 42.02 21.43 42.78C20.59 43.54 19.73 44.14 18.85 44.58C17.99 45.02 17.15 45.24 16.33 45.24ZM30.4684 45.72C30.3084 45.64 30.0884 45.57 29.8084 45.51C29.5284 45.47 29.2784 45.42 29.0584 45.36C28.6184 45.2 28.2884 44.91 28.0684 44.49C27.8684 44.07 27.7684 43.56 27.7684 42.96C27.7684 42.16 27.8984 41.25 28.1584 40.23C28.4384 39.21 28.7884 38.16 29.2084 37.08C29.6484 35.98 30.1084 34.93 30.5884 33.93C31.0684 32.93 31.5084 32.04 31.9084 31.26C32.3284 30.48 32.6484 29.9 32.8684 29.52C32.2084 29.62 31.4884 29.78 30.7084 30C29.9484 30.2 29.2984 30.45 28.7584 30.75C28.2184 31.05 27.9484 31.41 27.9484 31.83C27.9484 32.23 28.1984 32.62 28.6984 33C28.8584 33.14 28.9384 33.27 28.9384 33.39C28.9384 33.57 28.8484 33.68 28.6684 33.72C28.6084 33.74 28.5184 33.75 28.3984 33.75C28.0384 33.75 27.6884 33.61 27.3484 33.33C27.0284 33.05 26.7584 32.68 26.5384 32.22C26.3384 31.74 26.2384 31.24 26.2384 30.72C26.2384 29.96 26.5284 29.21 27.1084 28.47C27.6884 27.73 28.7084 27.22 30.1684 26.94C30.5284 26.86 31.2384 26.78 32.2984 26.7C33.3584 26.6 34.5084 26.55 35.7484 26.55C36.8484 26.55 37.9084 26.61 38.9284 26.73C39.9684 26.85 40.8184 27.06 41.4784 27.36C42.1584 27.66 42.4984 28.09 42.4984 28.65C42.4984 28.79 42.4884 28.96 42.4684 29.16C42.4484 29.36 42.4384 29.52 42.4384 29.64V29.7C42.4384 29.78 42.4084 29.83 42.3484 29.85C42.2884 29.87 42.2384 29.84 42.1984 29.76C42.0984 29.6 41.8084 29.47 41.3284 29.37C40.8684 29.27 40.2784 29.2 39.5584 29.16C38.8584 29.12 38.0984 29.11 37.2784 29.13C36.7984 29.87 36.2384 30.79 35.5984 31.89C34.9784 32.99 34.3484 34.19 33.7084 35.49C33.1484 36.65 32.6284 37.83 32.1484 39.03C31.6684 40.21 31.2784 41.3 30.9784 42.3C30.6984 43.28 30.5584 44.07 30.5584 44.67C30.5584 45.03 30.6184 45.29 30.7384 45.45C30.7784 45.49 30.7984 45.55 30.7984 45.63C30.7984 45.77 30.6884 45.8 30.4684 45.72ZM40.36 45.03C39.2 45.03 38.32 44.7 37.72 44.04C37.12 43.36 36.82 42.53 36.82 41.55C36.82 40.61 37.08 39.64 37.6 38.64C38.12 37.62 38.91 36.67 39.97 35.79C41.05 34.91 42.4 34.22 44.02 33.72C43.42 33.66 42.83 33.5 42.25 33.24C41.67 32.96 41.18 32.6 40.78 32.16C40.4 31.7 40.21 31.18 40.21 30.6C40.21 30.16 40.34 29.71 40.6 29.25C40.88 28.71 41.31 28.27 41.89 27.93C42.49 27.57 43.16 27.3 43.9 27.12C44.66 26.92 45.4 26.82 46.12 26.82C46.8 26.82 47.37 26.92 47.83 27.12C48.29 27.32 48.65 27.54 48.91 27.78C49.27 27.16 49.69 26.73 50.17 26.49C50.65 26.25 51.1 26.13 51.52 26.13C51.92 26.13 52.25 26.21 52.51 26.37C52.77 26.53 52.9 26.72 52.9 26.94C52.9 27.12 52.8 27.28 52.6 27.42C52.18 27.74 51.82 28.06 51.52 28.38C51.22 28.68 50.96 28.97 50.74 29.25C50.3 29.85 49.88 30.54 49.48 31.32C49.08 32.1 48.84 32.91 48.76 33.75C48.46 33.85 48.24 33.74 48.1 33.42C47.98 33.08 47.92 32.65 47.92 32.13C47.92 31.63 47.96 31.1 48.04 30.54C48.14 29.96 48.27 29.42 48.43 28.92C48.35 28.9 48.26 28.89 48.16 28.89C48.06 28.89 47.96 28.89 47.86 28.89C47.5 28.89 47.12 28.94 46.72 29.04C46.32 29.12 45.9 29.27 45.46 29.49C45.22 29.61 44.95 29.8 44.65 30.06C44.37 30.32 44.12 30.62 43.9 30.96C43.7 31.3 43.6 31.64 43.6 31.98C43.6 32.26 43.7 32.54 43.9 32.82C44.12 33.08 44.5 33.31 45.04 33.51C45.4 33.53 45.74 33.73 46.06 34.11C46.4 34.47 46.57 34.82 46.57 35.16C46.57 35.46 46.43 35.67 46.15 35.79C44.93 36.23 43.86 36.85 42.94 37.65C42.04 38.45 41.34 39.28 40.84 40.14C40.36 41 40.12 41.75 40.12 42.39C40.12 42.81 40.23 43.15 40.45 43.41C40.69 43.67 41.06 43.8 41.56 43.8C42.12 43.8 42.74 43.59 43.42 43.17C44.1 42.73 44.78 42.18 45.46 41.52C46.14 40.84 46.76 40.14 47.32 39.42C47.88 38.68 48.33 38 48.67 37.38C48.77 37.4 48.91 37.41 49.09 37.41C49.29 37.41 49.46 37.46 49.6 37.56C49.76 37.64 49.84 37.81 49.84 38.07C49.84 38.27 49.77 38.54 49.63 38.88C49.49 39.22 49.25 39.66 48.91 40.2C48.47 40.88 47.9 41.52 47.2 42.12C46.5 42.7 45.75 43.21 44.95 43.65C44.15 44.09 43.35 44.43 42.55 44.67C41.75 44.91 41.02 45.03 40.36 45.03ZM55.3206 44.97C54.5806 44.97 53.8806 44.83 53.2206 44.55C52.5806 44.27 52.0506 43.83 51.6306 43.23C51.2106 42.63 50.9706 41.87 50.9106 40.95C50.8506 39.95 50.9206 38.89 51.1206 37.77C51.3406 36.65 51.6706 35.53 52.1106 34.41C52.5506 33.29 53.0906 32.24 53.7306 31.26C54.3906 30.26 55.1306 29.39 55.9506 28.65C56.8106 27.89 57.7006 27.31 58.6206 26.91C59.5406 26.51 60.6006 26.31 61.8006 26.31C62.3606 26.31 62.8906 26.37 63.3906 26.49C63.8906 26.61 64.2506 26.79 64.4706 27.03C64.5706 27.13 64.6206 27.29 64.6206 27.51C64.6206 27.63 64.6006 27.74 64.5606 27.84C64.5206 27.94 64.4506 27.99 64.3506 27.99C64.2506 27.99 64.1506 27.94 64.0506 27.84C63.7306 27.58 63.3906 27.45 63.0306 27.45C62.4706 27.45 61.9006 27.69 61.3206 28.17C60.7606 28.65 60.2406 29.17 59.7606 29.73C59.2006 30.39 58.6506 31.22 58.1106 32.22C57.5706 33.2 57.0706 34.19 56.6106 35.19C56.3306 35.81 56.0206 36.56 55.6806 37.44C55.3606 38.32 55.0806 39.2 54.8406 40.08C54.6206 40.94 54.5106 41.7 54.5106 42.36C54.5106 42.8 54.5806 43.16 54.7206 43.44C54.8806 43.72 55.1406 43.86 55.5006 43.86C56.3006 43.86 57.2206 43.25 58.2606 42.03C59.3006 40.79 60.3706 38.99 61.4706 36.63C61.9306 35.63 62.2606 34.66 62.4606 33.72C62.6806 32.78 62.7906 31.94 62.7906 31.2C62.7906 30.66 62.7406 30.19 62.6406 29.79C62.5606 29.37 62.4206 29.06 62.2206 28.86C62.1206 28.72 62.0706 28.63 62.0706 28.59C62.0706 28.45 62.1806 28.38 62.4006 28.38C62.5806 28.38 62.7606 28.42 62.9406 28.5C63.7006 28.82 64.2306 29.34 64.5306 30.06C64.8306 30.76 64.9806 31.52 64.9806 32.34C64.9806 33.26 64.8506 34.18 64.5906 35.1C64.3506 36.02 64.0906 36.8 63.8106 37.44C63.3106 38.56 62.6706 39.68 61.8906 40.8C61.1106 41.92 60.2606 42.84 59.3406 43.56C58.1406 44.5 56.8006 44.97 55.3206 44.97ZM59.4006 51.24C59.1406 51.24 58.8506 51.19 58.5306 51.09C58.2306 51.01 57.9106 50.87 57.5706 50.67C57.0306 50.35 56.5006 49.94 55.9806 49.44C55.4806 48.96 55.0206 48.5 54.6006 48.06C54.1806 47.62 53.8506 47.31 53.6106 47.13C53.4706 47.03 53.2106 46.89 52.8306 46.71C52.4706 46.53 52.1106 46.44 51.7506 46.44C51.4506 46.44 51.2106 46.52 51.0306 46.68C50.9106 46.78 50.8506 46.75 50.8506 46.59C50.9106 46.13 51.1306 45.77 51.5106 45.51C51.9106 45.27 52.4106 45.15 53.0106 45.15C53.8506 45.15 54.6306 45.33 55.3506 45.69C56.0706 46.05 56.7606 46.47 57.4206 46.95C58.1006 47.43 58.8006 47.86 59.5206 48.24C59.7606 48.34 59.9706 48.39 60.1506 48.39C60.6906 48.39 61.1406 48.13 61.5006 47.61C61.7006 47.89 61.8006 48.25 61.8006 48.69C61.8006 49.29 61.5906 49.86 61.1706 50.4C60.7506 50.96 60.1606 51.24 59.4006 51.24Z" fill="black"/>
</svg>
